<?xml version="1.0" encoding="UTF-8" standalone="no"?>
<svg
   xmlns:dc="http://purl.org/dc/elements/1.1/"
   xmlns:cc="http://creativecommons.org/ns#"
   xmlns:rdf="http://www.w3.org/1999/02/22-rdf-syntax-ns#"
   xmlns:svg="http://www.w3.org/2000/svg"
   xmlns="http://www.w3.org/2000/svg"
   xmlns:sodipodi="http://sodipodi.sourceforge.net/DTD/sodipodi-0.dtd"
   xmlns:inkscape="http://www.inkscape.org/namespaces/inkscape"
   enable-background="new 0 0 55 55"
   height="55px"
   id="svg2"
   inkscape:version="0.48.4 r9939"
   sodipodi:docname="activity-ircchat.svg"
   style=""
   version="1.1"
   viewBox="0 0 55 55"
   width="55px"
   x="0px"
   xml:space="preserve"
   y="0px"><metadata
     id="metadata11"
     style=""><rdf:RDF
       style=""><cc:Work
         rdf:about=""
         style=""><dc:format
           style="">image/svg+xml</dc:format><dc:type
           rdf:resource="http://purl.org/dc/dcmitype/StillImage"
           style="" /><dc:title
           style="" /></cc:Work></rdf:RDF></metadata><defs
     id="defs9"
     style=""><inkscape:perspective
       sodipodi:type="inkscape:persp3d"
       inkscape:vp_x="0 : 27.5 : 1"
       inkscape:vp_y="0 : 1000 : 0"
       inkscape:vp_z="55 : 27.5 : 1"
       inkscape:persp3d-origin="27.5 : 18.333333 : 1"
       id="perspective3096" /></defs><sodipodi:namedview
     bordercolor="#666666"
     borderopacity="1"
     gridtolerance="10"
     guidetolerance="10"
     id="namedview7"
     inkscape:current-layer="activity-irc_x5F_chat"
     inkscape:cx="28.665254"
     inkscape:cy="27.5"
     inkscape:pageopacity="0"
     inkscape:pageshadow="2"
     inkscape:window-height="744"
     inkscape:window-maximized="1"
     inkscape:window-width="959"
     inkscape:window-x="65"
     inkscape:window-y="24"
     inkscape:zoom="4.2909091"
     objecttolerance="10"
     pagecolor="#ffffff"
     showgrid="false"
     style="" /><g
     display="block"
     id="activity-irc_x5F_chat"
     style=""><path
       d="m 5.646,9.404 v 31.86 h 8.943 c 1.602,1.892 -3.98,6.839 -3.98,6.839 7.275,0.873 13.643,-6.257 13.643,-6.257 H 49.104 V 9.404 H 5.646 z"
       id="rect3365"
       inkscape:connector-curvature="0"
       style="fill:none;stroke:#666666;stroke-width:3.5;stroke-linecap:round;stroke-linejoin:round" /><path
       style="fill:none;stroke:#000000;stroke-width:1px;stroke-linecap:butt;stroke-linejoin:miter;stroke-opacity:1"
       d="m 13.283898,19.809322 c 0.310735,0 0.932204,-0.310734 0.932204,0 0,0.310735 -1.242938,0 -0.932204,0 0.388418,0 0.784379,0.07617 1.165255,0 0.07617,-0.01524 0,-0.155367 0,-0.233051 0,-0.07768 0,-0.155367 0,-0.233051 0,-0.932203 0,-1.864406 0,-2.79661 0,-0.07768 0,-0.155367 0,-0.233051 0,-0.07768 -0.05493,-0.17812 0,-0.23305 0.05493,-0.05493 0.17812,0.05493 0.23305,0 0.109862,-0.109862 -0.109861,-0.356241 0,-0.466102 0.05493,-0.05493 0.155368,0 0.233051,0 0.07768,0 0.155367,0 0.233051,0 0.388418,0 0.776836,0 1.165254,0 0.07768,0 0.178121,-0.05493 0.233051,0 0.109861,0.109861 -0.06948,0.327137 0,0.466102 0.04913,0.09826 0.18392,0.134788 0.233051,0.23305 0.06948,0.138965 -0.109861,0.356241 0,0.466102 0.05493,0.05493 0.17812,-0.05493 0.233051,0 0.05493,0.05493 -0.05493,0.17812 0,0.233051 0.05493,0.05493 0.17812,-0.05493 0.233051,0 0.04764,0.04764 -0.0462,0.60675 0,0.699152 0.04913,0.09826 0.183919,0.134788 0.233051,0.233051 0.03474,0.06948 -0.03474,0.163569 0,0.233051 0.04913,0.09826 0.183919,0.134788 0.23305,0.233051 0.03474,0.06948 -0.03474,0.163569 0,0.233051 0.484951,0.969902 -0.01609,-0.24914 0.466102,0.233051 0.05493,0.05493 -0.05493,0.17812 0,0.233051 0.05493,0.05493 0.17812,-0.05493 0.233051,0 0.05493,0.05493 -0.05493,0.17812 0,0.23305 0.05493,0.05493 0.17812,-0.05493 0.233051,0 0.109861,0.109862 -0.109861,0.356241 0,0.466102 0.05493,0.05493 0.17812,0.05493 0.233051,0 0.05493,-0.05493 -0.02457,-0.159354 0,-0.233051 0.05493,-0.164792 0.17812,-0.30131 0.23305,-0.466101 0.04632,-0.138962 0,-1.17251 0,-1.398306 0,-0.07768 -0.05493,-0.17812 0,-0.23305 0.310735,-0.310735 0.233051,0.388418 0.233051,-0.233051 0,-0.08559 -0.0094,-0.922825 0,-0.932204 0.05493,-0.05493 0.178121,0.05493 0.233051,0 0.05608,-0.05608 -0.05608,-0.876124 0,-0.932203 0.01056,-0.01056 1.055371,0 1.165254,0 0.07768,0 0.178121,-0.05493 0.233051,0 0.05493,0.05493 0,0.155367 0,0.233051 0,0.104956 -0.03546,0.628227 0,0.699152 0.04913,0.09826 0.18392,0.134788 0.233051,0.233051 0.07446,0.148925 -0.06253,0.744621 0,0.932204 0.05493,0.164791 0.17812,0.301309 0.233051,0.466101 0.06992,0.209746 -0.06991,0.489407 0,0.699153 0.267792,0.803376 0.233051,0.172635 0.233051,0.699152 0,0.05652 -0.0075,0.691658 0,0.699153 0.05493,0.05493 0.155367,0 0.233051,0"
       id="path3114"
       inkscape:connector-curvature="0" /><path
       style="fill:#ffffff;stroke:#000000;stroke-width:1px;stroke-linecap:butt;stroke-linejoin:miter;stroke-opacity:1"
       d="m 29.597458,14.915254 c -0.310735,0 -0.932204,0.310735 -0.932204,0 0,-0.310734 1.242938,0 0.932204,0 -0.776837,0 -1.553673,0 -2.330509,0 -0.121867,0 -0.870925,-0.03064 -0.932203,0 -0.969902,0.484951 0.249139,-0.01609 -0.233051,0.466102 -0.05493,0.05493 -0.17812,-0.05493 -0.233051,0 -0.05493,0.05493 0,0.155367 0,0.233051 0,0.621469 0,1.242938 0,1.864407 0,0.155367 0,0.310734 0,0.466101 0,0.07768 0.07768,0.233051 0,0.233051 -0.07768,0 -0.07768,-0.233051 0,-0.233051 0.109861,0 0.134788,0.18392 0.233051,0.233051 0.06948,0.03474 0.155367,0 0.233051,0 0.07768,0 0.155367,0 0.233051,0 0.466101,0 0.932203,0 1.398305,0 0.07768,0 0.155367,0 0.23305,0 0.07768,0 0.178121,-0.05493 0.233051,0 0.05493,0.05493 -0.05493,0.17812 0,0.233051 0.116526,0.116525 0.582627,-0.116525 0.699153,0 0.05493,0.05493 -0.05493,0.17812 0,0.233051 0.05493,0.05493 0.163568,-0.03474 0.233051,0 0.561486,0.280743 -0.09539,0.185358 0.466101,0.466102 0.06948,0.03474 0.178121,-0.05493 0.233051,0 0.05493,0.05493 -0.05493,0.17812 0,0.23305 0.05493,0.05493 0.17812,-0.05493 0.233051,0 0.05493,0.05493 -0.05493,0.178121 0,0.233051 0.05493,0.05493 0.17812,-0.05493 0.233051,0 0.05493,0.05493 -0.05493,0.17812 0,0.233051 0.05493,0.05493 0.17812,-0.05493 0.233051,0 0.0094,0.0094 0,0.846619 0,0.932203 0,0.109883 0.01056,1.154692 0,1.165255 -0.05493,0.05493 -0.155367,0 -0.233051,0 -0.07768,0 -0.155367,0 -0.233051,0 -0.699152,0 -1.398305,0 -2.097458,0 -0.05652,0 -0.691657,0.0075 -0.699152,0 -0.05493,-0.05493 0,-0.155368 0,-0.233051 0,-0.07768 0,-0.155367 0,-0.233051"
       id="path3116"
       inkscape:connector-curvature="0" /><path
       style="fill:none;stroke:#000000;stroke-width:1px;stroke-linecap:butt;stroke-linejoin:miter;stroke-opacity:1"
       d="m 11.885593,35.65678 c 0,-2.485876 0,-4.971752 0,-7.457627 0,-0.621469 0,-1.242938 0,-1.864407 0,-0.07768 0,-0.155367 0,-0.233051 0,-0.07768 -0.07768,-0.233051 0,-0.233051 0.342912,0 -0.539881,0.772932 0.233051,0"
       id="path3118"
       inkscape:connector-curvature="0" /><path
       style="fill:none;stroke:#000000;stroke-width:1px;stroke-linecap:butt;stroke-linejoin:miter;stroke-opacity:1"
       d="m 9.7881356,26.334746 c 1.9420904,0 3.8841804,0 5.8262714,0"
       id="path3120"
       inkscape:connector-curvature="0" /><path
       style="fill:none;stroke:#000000;stroke-width:1px;stroke-linecap:butt;stroke-linejoin:miter;stroke-opacity:1"
       d="m 9.088983,34.258475 c 2.408192,0 4.816384,0 7.224576,0"
       id="path3122"
       inkscape:connector-curvature="0" /><path
       style="fill:none;stroke:#000000;stroke-width:1px;stroke-linecap:butt;stroke-linejoin:miter;stroke-opacity:1"
       d="m 21.90678,34.957627 c 0,-2.019774 0,-4.039548 0,-6.059322 0,-0.388418 0,-0.776836 0,-1.165254 0,-0.104956 0.03546,-0.628227 0,-0.699153 -0.04913,-0.09826 -0.18392,-0.134788 -0.233051,-0.23305 -0.03546,-0.07093 0,-0.594197 0,-0.699153 0,-0.466102 0,-0.932203 0,-1.398305 0,-0.07768 0,-0.155367 0,-0.233051 0,-0.07768 -0.05493,-0.17812 0,-0.233051 0.05493,-0.05493 0.155367,0 0.233051,0 0.07768,0 0.155367,0 0.23305,0 0.621469,0 1.242938,0 1.864407,0 0.07768,0 0.155367,0 0.233051,0 0.07768,0 0.17812,-0.05493 0.233051,0 0.05493,0.05493 -0.05493,0.17812 0,0.233051 0.109861,0.109861 0.35624,-0.109861 0.466102,0 0.109861,0.109861 -0.109862,0.356241 0,0.466102 0.05493,0.05493 0.17812,-0.05493 0.23305,0 0.05493,0.05493 -0.03474,0.163568 0,0.233051 0.04913,0.09826 0.18392,0.134788 0.233051,0.23305 0.03474,0.06948 -0.05493,0.178121 0,0.233051 0.05493,0.05493 0.178121,-0.05493 0.233051,0 0.116526,0.116526 -0.116525,0.582627 0,0.699153 0.05493,0.05493 0.17812,-0.05493 0.233051,0 0.05493,0.05493 0,0.155367 0,0.233051 0,0.07768 0,0.155367 0,0.233051 0,0.621468 0,1.242937 0,1.864406 0,0.121867 0.03064,0.870925 0,0.932204 -0.228744,0.457488 -0.442889,0.104919 -0.699153,0.233051 -0.09826,0.04913 -0.134788,0.183919 -0.23305,0.23305 -0.06128,0.03064 -0.810337,0 -0.932204,0 -0.07768,0 -0.155367,0 -0.233051,0 -0.07768,0 -0.23305,0.07768 -0.23305,0 0,-0.07768 0.23305,-0.07768 0.23305,0 0,0.109862 -0.183919,0.134788 -0.23305,0.233051 -0.0061,0.01219 -0.0061,0.686961 0,0.699153 0.04913,0.09826 0.134788,0.183919 0.23305,0.233051 0.06948,0.03474 0.155368,0 0.233051,0 0.07768,0 0.155367,0 0.233051,0 0.466102,0 0.932203,0 1.398305,0 0.07768,0 0.155367,0 0.233051,0 0.07768,0 0.17812,-0.05493 0.233051,0 0.05493,0.05493 -0.05493,0.17812 0,0.23305 0.05493,0.05493 0.17812,-0.05493 0.233051,0 0.05493,0.05493 -0.05493,0.178121 0,0.233051 0.109861,0.109862 0.35624,-0.109861 0.466101,0 0.05493,0.05493 -0.03474,0.163569 0,0.233051 0.484951,0.969902 -0.01609,-0.249139 0.466102,0.233051 0.05493,0.05493 -0.05493,0.17812 0,0.233051 0.05493,0.05493 0.17812,-0.05493 0.233051,0 0.05493,0.05493 -0.05493,0.17812 0,0.233051 0.116525,0.116525 0.582627,-0.116526 0.699152,0 0.05493,0.05493 0,0.155367 0,0.233051"
       id="path3124"
       inkscape:connector-curvature="0" /><path
       style="fill:none;stroke:#000000;stroke-width:1px;stroke-linecap:butt;stroke-linejoin:miter;stroke-opacity:1"
       d="m 37.754237,25.868644 c -0.932203,0 -1.864407,0 -2.79661,0 -0.05652,0 -0.691658,-0.0075 -0.699152,0 -0.05493,0.05493 0.05493,0.17812 0,0.233051 -0.109862,0.109861 -0.327138,-0.06948 -0.466102,0 -0.09826,0.04913 -0.155367,0.155367 -0.233051,0.233051 -0.07768,0.07768 -0.183919,0.134788 -0.233051,0.233051 -0.03474,0.06948 0.03474,0.163568 0,0.233051 -0.04913,0.09826 -0.183919,0.134787 -0.233051,0.23305 -0.03474,0.06948 0.03474,0.163569 0,0.233051 -0.04913,0.09826 -0.183919,0.134788 -0.233051,0.233051 -0.09322,0.186441 0.09322,0.512712 0,0.699153 -0.04913,0.09826 -0.183919,0.134788 -0.23305,0.23305 -0.03546,0.07093 0,0.594197 0,0.699153 0,0.621469 0,1.242938 0,1.864407 0,0.543785 0,1.08757 0,1.631356 0,0.07768 -0.05493,0.17812 0,0.233051 0.05493,0.05493 0.17812,-0.05493 0.23305,0 0.05493,0.05493 -0.05493,0.17812 0,0.23305 0.01056,0.01056 1.055372,0 1.165255,0 0.07768,0 0.155367,0 0.233051,0 0.07768,0 0.17812,-0.05493 0.23305,0 0.05493,0.05493 -0.05493,0.178121 0,0.233051 0.05608,0.05608 0.876124,-0.05608 0.932204,0 0.05493,0.05493 -0.05493,0.17812 0,0.233051 0.05493,0.05493 0.155367,0 0.233051,0 0.388418,0 0.776836,0 1.165254,0 0.776836,0 1.553672,0 2.330508,0 0.06907,0 1.162087,0 0.466102,0"
       id="path3126"
       inkscape:connector-curvature="0" /><path
       style="fill:none;stroke:#000000;stroke-width:1px;stroke-linecap:butt;stroke-linejoin:miter;stroke-opacity:1"
       d="m 43.114407,22.838983 c 0,0.310735 0.310734,0.932204 0,0.932204 -0.310735,0 0,-1.242938 0,-0.932204 0,0.932204 0,1.864407 0,2.79661 0,0.466102 0,0.932204 0,1.398305 0,0.07768 0.07768,0.233051 0,0.233051 -0.07768,0 0,-0.310734 0,-0.233051 0,0.466102 0,0.932204 0,1.398305 0,0.07768 0.07768,0.233051 0,0.233051 -0.07768,0 0,-0.310734 0,-0.233051 0,0.155368 0,0.310735 0,0.466102 0,0.07768 -0.05493,0.17812 0,0.233051 0.05493,0.05493 0.17812,-0.05493 0.233051,0 0.05493,0.05493 0.07768,0.233051 0,0.233051 -0.07768,0 0,-0.310735 0,-0.233051 0,0.155367 0,0.310734 0,0.466102 0,0.07768 -0.05493,0.17812 0,0.233051 0.05493,0.05493 0.17812,-0.05493 0.23305,0 0.0094,0.0094 0,0.846618 0,0.932203"
       id="path3128"
       inkscape:connector-curvature="0" /><path
       style="fill:none;stroke:#000000;stroke-width:1px;stroke-linecap:butt;stroke-linejoin:miter;stroke-opacity:1"
       d="m 44.04661,33.559322 c 0,0.310735 0.310735,0.932203 0,0.932203 -0.310734,0 0,-1.242937 0,-0.932203 0,1.553672 0,1.553672 0,0"
       id="path3130"
       inkscape:connector-curvature="0" /><path
       sodipodi:type="star"
       style="fill:#ffffff;stroke:#00b900;stroke-opacity:1"
       id="path3158"
       sodipodi:sides="5"
       sodipodi:cx="35.65678"
       sodipodi:cy="15.148305"
       sodipodi:r1="3.3122749"
       sodipodi:r2="1.6561374"
       sodipodi:arg1="0.68572951"
       sodipodi:arg2="1.314048"
       inkscape:flatsided="false"
       inkscape:rounded="0"
       inkscape:randomized="0"
       d="m 38.22034,17.245763 -2.143006,-0.495608 -1.623171,1.48439 -0.190875,-2.19127 -1.913326,-1.085027 2.025039,-0.858672 0.440671,-2.154972 1.442417,1.660581 2.185675,-0.24682 -1.133575,1.884968 z"
       inkscape:transform-center-x="0.25991679"
       inkscape:transform-center-y="-0.058730689" /></g></svg>